<svg xmlns="http://www.w3.org/2000/svg" viewBox="325 155 200 220">
  <path fill="#0d9488" d="M488.17,235.11c-1.56.14-3.18.6-3.81-.77-.56-1.21.45-2.45,2.54-3.15,2.09-.7,2.6-2.67,1.42-3.92-1.25-1.32-3.08-.44-3.64,1.05-.56,1.48-.93,2.48-2.3,2.71-1.75.29-2.48-1.71-.8-3.78,1.41-1.74,1.48-4.09-.28-4.76-1.58-.59-3.67.35-3.13,3.54.53,3.12-.6,5.26-2.78,5.1-1.73-.13-1.74-1.51-2.31-2.9-1.48-3.57-6.55.04-3.32,3.01,2.26,2.09,5.57,2.9,5.26,5.03-.32,2.13-2.03,9.09-8.04,10.35-9.49,2.01-8.78-5.4-8.34-9.24.58-5.06,3.5-11.2,2.29-19.36-.73-4.93-6.85-13.44-11.91-16.75-1.95-1.28-3.55-1.52-5.69-1.12-2.07.39-3.69,1.28-4.98,3.21-3.5,5.25-5.58,16.2-3.9,20.97,1.78,5.07,5.47,11.71,3.66,17.03-1.09,3.21-3.12,4.33-5.95,4.94-12.31,2.65-7.09-10.21-7.15-9.21.13-2.15,3.64-2.42,6.28-3.99,3.77-2.24-.43-6.83-2.62-3.63-.86,1.24-1.15,2.59-2.87,2.35-2.17-.3-2.83-2.62-1.66-5.57,1.2-3-.65-4.36-2.32-4.11-1.86.28-2.29,2.59-1.27,4.59,1.21,2.38.09,4.17-1.57,3.53-1.29-.5-1.44-1.56-1.68-3.13-.24-1.57-1.85-2.81-3.35-1.78-1.4.97-1.31,3,.58,4.12,1.89,1.12,2.62,2.54,1.83,3.61-.9,1.21-2.37.36-3.88-.04-1.52-.41-2.62.74-2.67,2.06-.04.99,1.39,3,3.35,2.15,1.96-.85,5.33-.43,6.14.52,2.44,2.83-4.26,11.67,3.69,14,3.92,1.15,8.34,2.92,7.79,5.31,0,0,2.03,11.6-6.94,20.55-.56-1.09-1.9-3.72-2.45-4.42-2.67-3.41-7.36-4.17-10.53-1.08-3.16,3.08-7.87,6.84-7.87,6.84l-.83-1.84c-1.02-2.87,2.89-5.16,5.59-5.87,3.86-1,1.35-6.07-1.37-3.84-1.06.87-1.66,1.97-3.1,1.33-1.82-.81-1.81-3.01-.04-5.28,1.81-2.33.53-3.98-.98-4.18-1.7-.23-2.66,1.68-2.27,3.69.46,2.38-.98,3.66-2.26,2.68-1-.77-.86-1.72-.68-3.16.18-1.43-.91-2.92-2.47-2.4-1.47.49-1.91,2.29-.54,3.75,1.37,1.45,1.65,2.88.68,3.61-1.1.83-2.14-.32-3.38-1.02-1.18-.65-2.47-.02-2.85,1.12-.28.86.46,2.97,2.39,2.73,1.93-.25,4.58,2.46,4.99,5,0,0,2.25,10.45,6.86,11.22,2.25.38,6.46-2.37,8.86-3.81,1.23-.74,2.17-.33,2.3,1.03.19,1.92.26,4.84.35,6.42,0,.16,0-.16,0,0-1.5,12.78-10.75,15.83-22.32,20.51-7.24,2.93-19.16,8.41-19.9,20.41-.86,13.93,9.78,19.25,11.66,18.84,2.04-.31.29-1.88-2.78-6.22-5.01-7.1,3.89-18.42,19.25-20.83,28.61-4.49,34.76-19.74,38.96-17.89,1.54.8,4.03,2,5.48,2.88,1.16.71,1.13,1.73-.08,2.52-2.34,1.54-7.39,4.99-8.03,7.18-1.31,4.49,6.97,9.73,6.97,9.73,2.32,1.63,2.77,5.5,1.71,7.13-1.06,1.63.14,3.19,1.41,3.34,1.36.16,2.31-1.12,2.26-2.08-.08-1.42-.67-2.86.56-3.49,1.08-.55,2.25.32,2.96,2.19.72,1.87,2.53,2.26,3.61,1.15,1.15-1.18.28-2.81-1.08-3.27-1.37-.46-2.29-.75-2.55-1.98-.32-1.58,1.46-2.31,3.4-.86,1.64,1.22,3.77,1.19,4.31-.43.48-1.46-.45-3.32-3.33-2.71-2.81.61-4.8-.35-4.74-2.33.05-1.57,1.3-1.64,2.55-2.21,3.19-1.48-.28-5.95-2.86-2.91-1.81,2.13-4.07,4.67-6.2,2.49l-1.29-1.55s5.43-2.6,9.59-4.1c4.15-1.5,5.51-6.05,3.6-9.95-1.74-3.56-9.06-10.46-10.13-11.52,8-8.35,13.48-29.42,13.59-35.76.02-1.1.98-1.81,1.49-1.89,3.63-.58,9.61-2.34,11.84-4.56,4.85-4.82,3.3-11.64,6.27-13.9.99-.76,4.44-.29,6.18.94,1.74,1.24,3.56-.43,3.73-1.4.23-1.31-.69-2.7-2.18-2.57Z"/>
</svg>