<svg xmlns="http://www.w3.org/2000/svg" viewBox="10 175 215 210">
  <path fill="#0d9488" d="M114.86,311.64c-5.41-21.92-1.16-30.9-.04-34.97,1.25-.5,3.22-1.36,4.46-1.77,1-.32,1.59.21,1.45,1.32-.28,2.16-.79,6.87.17,8.35,1.98,3.04,9.24.81,9.24.81,2.13-.54,4.64,1.15,5.06,2.6.42,1.45,1.95,1.53,2.68.85.78-.72.51-1.93-.08-2.38-.88-.67-2.02-1.05-1.77-2.09.22-.91,1.32-1.16,2.78-.63,1.46.52,2.61-.35,2.5-1.54-.11-1.28-1.51-1.59-2.47-1.01-.96.57-1.6.97-2.45.5-1.09-.61-.63-2.03,1.21-2.44,1.55-.34,2.6-1.62,1.92-2.75-.62-1.02-2.18-1.41-3.28.59-1.07,1.96-2.63,2.65-3.76,1.61-.9-.82-.3-1.59-.02-2.62.74-2.62-3.64-2.84-3.15.21.34,2.14.69,4.75-1.67,4.91l-1.56-.02s1.21-4.51,2.43-7.71c1.21-3.2-.78-6.3-4.03-7.15-2.98-.77-10.73.05-11.89.14-.87-8.92-7.07-24.3-8.87-28.88-.31-.79.16-1.59.51-1.8,2.43-1.49,6.18-4.53,7.12-6.79,2.04-4.9-1.1-9.31.36-11.81.49-.84,3.09-1.53,4.71-1.16,1.62.37,2.43-1.37,2.26-2.12-.23-1-1.3-1.73-2.33-1.19-1.08.56-2.09,1.38-2.95.58-.76-.7-.41-1.89.88-3.01,1.28-1.12,1.06-2.69-.14-3.23-1.29-.58-2.34.6-2.3,1.83.04,1.23.07,2.05-.84,2.62-1.17.72-2.28-.48-1.69-2.47.5-1.67-.16-3.37-1.62-3.32-1.31.04-2.52,1.34-1.18,3.47,1.31,2.08,1.13,3.95-.48,4.48-1.27.42-1.69-.56-2.52-1.39-2.13-2.12-4.68,1.97-1.49,3.14,2.24.82,4.86.42,5.26,2.04.41,1.62,1.24,7.11-2.68,9.8-6.2,4.26-7.9-1.25-8.72-4.13-1.09-3.79-.82-9.06-4.11-14.54-1.99-3.31-8.9-7.59-13.51-8.45-1.78-.33-3-.04-4.41.89-1.37.9-2.26,2.01-2.61,3.78-.95,4.8.82,13.26,3.44,16.18,2.78,3.1,7.4,6.76,7.69,11.11.17,2.62-.95,4.03-2.79,5.31-8.03,5.56-8.11-5.21-7.86-4.47-.55-1.58,1.89-2.81,3.31-4.73,2.04-2.72-2.34-4.76-2.96-1.82-.24,1.14-.06,2.19-1.35,2.54-1.64.43-2.81-1.04-2.84-3.5-.04-2.51-1.77-2.93-2.88-2.25-1.25.76-.87,2.54.46,3.67,1.57,1.34,1.3,2.96-.07,2.99-1.08.03-1.49-.69-2.14-1.74-.64-1.05-2.16-1.47-2.93-.28-.72,1.11-.05,2.54,1.64,2.78,1.69.24,2.63,1.04,2.38,2.04-.29,1.14-1.59.97-2.79,1.13-1.21.16-1.65,1.31-1.3,2.27.27.72,1.89,1.73,3.04.54,1.15-1.19,3.69-1.89,4.55-1.46,2.59,1.3.42,9.62,6.81,8.93,3.15-.34,9.8-.62,11.29,3.83,0,0,4.87,15.47,5.09,23.98-.93-.22-3.15-.76-3.84-.79-3.36-.15-6.17,2.23-5.95,5.65.22,3.42.05,8.09.05,8.09l-1.5-.44c-2.2-.85-1.58-4.31-.63-6.26,1.36-2.77-2.89-3.86-2.95-1.13-.02,1.06.32,1.97-.78,2.5-1.39.66-2.68-.46-3.13-2.64-.46-2.24-2.07-2.32-2.96-1.53-.99.88-.35,2.41,1.03,3.2,1.63.93,1.66,2.43.44,2.69-.96.2-1.45-.36-2.2-1.2-.75-.83-2.18-.94-2.66.24-.45,1.11.39,2.28,1.94,2.21,1.55-.07,2.53.48,2.47,1.42-.07,1.06-1.27,1.09-2.31,1.48-.98.36-1.26,1.45-.78,2.25.36.6,1.98,1.23,2.81-.03.83-1.26,3.76-1.45,5.46-.41,0,0,7.28,3.95,10.07,1.63,1.36-1.13,1.87-5,2.23-7.14.19-1.1.9-1.44,1.77-.84,1.23.86,2.98,2.29,3.96,3.04.1.08-.1-.07,0,0,6.77,7.33,10.07,21.14,12.68,30.46,4.16,14.86,13.37,27.93,20.96,35.09,2.03,1.92,4.14-.94,1.74-3.66-3.59-4.05-11.01-21.71-14.06-34.08Z"/>
</svg>