<svg xmlns="http://www.w3.org/2000/svg" viewBox="475 165 190 205">
  <path fill="#0d9488" d="M618.29,294.5c-19.19-14.86-21.6-25.26-23.37-29.43.72-1.25,1.8-3.29,2.58-4.46.63-.94,1.48-.88,2.1.15,1.2,2,3.92,6.32,5.72,6.92,3.7,1.24,8.33-5.48,8.33-5.48,1.43-1.88,4.67-2.12,5.99-1.19,1.32.94,2.66-.01,2.83-1.07.18-1.12-.86-1.96-1.66-1.95-1.18.02-2.4.46-2.88-.58-.42-.92.34-1.86,1.92-2.39,1.58-.53,1.97-2.03,1.08-2.97-.95-1-2.33-.33-2.76.8-.43,1.13-.7,1.89-1.74,2.06-1.33.22-1.88-1.29-.61-2.86,1.07-1.32,1.11-3.1-.22-3.6-1.2-.45-2.78.27-2.36,2.69.41,2.36-.45,3.99-2.1,3.87-1.31-.1-1.32-1.14-1.76-2.19-1.13-2.71-4.96.04-2.52,2.29,1.72,1.58,3.75,3.54,1.87,5.25l-1.33,1.02s-2.55-4.39-4.81-7.29c-3.42-4.4-3.56-3.35-6.86-1.89-3.02,1.34-6.59,5.84-7.5,6.7-6.69-6.93-7.9-9.9-9.83-14.82-.34-.85.17-1.71.54-1.93,2.61-1.6,7.71-6.33,7.95-8.95.52-5.68-4.12-9.2-3.42-12.23.23-1.02,2.68-2.56,4.45-2.7,1.78-.14,2.05-2.18,1.63-2.89-.55-.96-1.89-1.36-2.77-.48-.92.93-1.71,2.09-2.84,1.54-1.01-.48-1.02-1.81-.07-3.37.96-1.57.23-3.1-1.18-3.27-1.5-.17-2.2,1.37-1.77,2.62.43,1.25.74,2.09-.02,2.96-.96,1.12-2.49.24-2.53-1.99-.03-1.87-1.25-3.41-2.73-2.89-1.33.46-2.16,2.18-.1,3.94,2.01,1.71,2.43,3.68.95,4.74-1.17.84-1.92-.03-3.03-.62-2.86-1.49-4.16,3.53-.51,3.7,2.56.12,5.11-1.13,6.05.4.94,1.53,4.55,7.42.33,10.31-6.66,4.58-8.48-1.35-9.37-4.44-1.17-4.08.75-9.19-1.34-15.73-1.26-3.95-7.43-10.13-12.04-12.18-1.78-.79-3.12-.78-4.83-.16-1.65.6-2.87,1.54-3.67,3.31-2.18,4.78-2.42,14.08-.4,17.77,2.14,3.93,7.44,11.95,7.75,16.62.19,2.82-1.02,4.33-3,5.7-8.63,5.97-11.52-3.06-10.98-2.42-1.16-1.37.8-3.55,1.49-6.02.99-3.52-4.18-3.87-3.67-.68.2,1.24.79,2.22-.38,3.07-1.48,1.07-3.22.04-4.2-2.41-1.01-2.5-2.9-2.26-3.76-1.14-.96,1.24.11,2.88,1.88,3.5,2.1.74,2.45,2.47,1.09,3.03-1.07.44-1.76-.11-2.81-.92-1.05-.81-2.73-.63-3.04.85-.29,1.39.93,2.57,2.72,2.15,1.79-.42,3.04.03,3.18,1.13.15,1.25-1.22,1.58-2.37,2.21-1.15.63-1.15,1.95-.42,2.78.55.62,2.57,1.01,3.26-.63.7-1.64,2.97-3.32,4-3.22,3.1.3,1.86,6.62,8.72,5.87,3.39-.37,10.54-.67,12.14,4.12,0,0,6.49,14.77,12.36,21.8-.93.43-3.16,1.46-3.76,1.89-2.93,2.12-3.71,6-1.25,8.73,2.46,2.73,5.44,6.78,5.44,6.78l-1.56.63c-2.42.76-4.21-2.57-4.7-4.85-.71-3.25-5.01-1.32-3.24,1.02.69.91,1.59,1.45,1.01,2.62-.73,1.49-2.56,1.41-4.4-.14-1.88-1.58-3.3-.57-3.51.68-.24,1.41,1.31,2.27,3,2.01,2-.3,3.02.94,2.16,1.97-.67.81-1.46.66-2.65.46-1.19-.2-2.46.66-2.08,1.98.36,1.24,1.85,1.66,3.11.57,1.25-1.09,2.45-1.28,3.03-.45.66.94-.34,1.77-.96,2.78-.58.96-.09,2.06.84,2.41.7.26,2.49-.29,2.35-1.9-.14-1.61,2.2-3.73,4.33-3.99,0,0,8.77-1.53,9.57-5.35.39-1.86-1.77-5.46-2.88-7.51-.57-1.05-.2-1.82.93-1.88,1.61-.09,4.03-.06,5.36-.08.13,0-.13,0,0,0,10.6,1.66,21.97,12.05,31.01,17.2,13.38,7.62,21.95,9.49,33.13,10.46,2.99.26,2.86-3.56-.98-4.24-5.73-1.02-15.81-5.83-26.63-14.21Z"/>
</svg>