<svg xmlns="http://www.w3.org/2000/svg" viewBox="155 160 195 210">
  <path fill="#0d9488" d="M296.08,231.22c-1.28.07-2.61.39-3.08-.75-.42-1.01.45-1.99,2.17-2.49,1.72-.5,2.2-2.1,1.29-3.15-.97-1.12-2.5-.46-3.01.73-.51,1.19-.84,2-1.96,2.13-1.44.18-1.97-1.47-.53-3.11,1.21-1.37,1.34-3.29-.08-3.89-1.27-.54-3,.16-2.66,2.79.33,2.57-.66,4.27-2.43,4.07-1.4-.16-1.37-1.29-1.79-2.44-1.09-2.96-5.34-.18-2.81,2.35,1.78,1.78,4.45,2.55,4.12,4.28-.33,1.73-1.95,7.34-6.89,8.18-7.81,1.33-7.58-2.86-8.27-5.94-.82-3.69,4.77-9.01,5.85-15.66.65-4.01-1.99-12.15-5.1-15.98-1.2-1.48-2.38-2.07-4.15-2.28-1.71-.21-3.19.08-4.67,1.26-4.02,3.21-9.66,11.74-9.54,15.86.13,4.38,1.23,10.24,0,15.15-.67,2.68-3.41,6.15-5.73,6.55-10.13,1.76-5.86-7.33-5.94-6.52.18-1.75,3.05-1.85,5.25-3.05,3.15-1.7-.13-5.58-2.02-3.05-.74.98-1.02,2.07-2.42,1.83-1.76-.31-2.22-2.24-1.17-4.6,1.07-2.41-.39-3.58-1.76-3.43-1.53.17-1.95,2.04-1.18,3.7.91,1.98-.07,3.41-1.39,2.83-1.04-.45-1.12-1.32-1.27-2.61-.15-1.29-1.42-2.36-2.67-1.56-1.17.74-1.17,2.41.34,3.38,1.51.97,2.06,2.16,1.37,3.01-.78.96-1.95.22-3.17-.16-1.23-.38-2.16.52-2.24,1.59-.06.81,1.04,2.49,2.67,1.86,1.63-.63,4.36-.17,5,.62,1.89,2.39-3.86,9.38,2.55,11.54,3.16,1.07,10.33,1.06,9.81,3,0,0,1.58,18.58-2.68,28-.75-.67-2.53-2.29-3.15-2.67-3.03-1.83-6.83-1.05-8.35,2.22-1.52,3.26-4.03,7.5-4.03,7.5l-1.16-1.16c-1.61-1.89.71-4.78,2.57-6.1,2.66-1.88-.72-5.02-2.16-2.53-.56.97-.7,1.98-1.98,1.91-1.62-.09-2.25-1.77-1.56-4.02.71-2.3-.74-3.19-1.96-2.9-1.36.32-1.54,2.05-.67,3.47,1.04,1.68.31,3.08-.95,2.7-.99-.3-1.16-1.07-1.43-2.22-.27-1.15-1.54-1.97-2.58-1.12-.98.8-.79,2.3.67,3.02,1.47.71,2.09,1.72,1.57,2.56-.6.95-1.73.37-2.88.2-1.09-.16-1.89.7-1.85,1.68.03.74,1.21,2.14,2.61,1.39,1.4-.75,4.21.55,5.26,2.38,0,0,4.74,7.33,8.48,6.59,1.83-.36,4.25-3.68,5.67-5.47.73-.92,1.56-.87,2.05.12.7,1.41,3.75,6.88,4.28,8.07.05.12,3.28,7.78-2.46,22.94-2.26,5.96-3.92,21.77-.41,29.49,4.71,10.37,16.91,5.89,17.67,4.51.9-1.42-1-1.19-5.32-1.63-7.05-.72-7.19-11.23-2.48-23.02,6.52-16.31,5.29-26.96,14.12-31.42,1.4.17,3.66.36,5.01.62,1.09.21,1.36,1,.67,1.95-1.34,1.85-4.2,5.95-4.05,7.81.3,3.81,8.13,5.41,8.13,5.41,2.24.57,3.7,3.4,3.36,4.95-.34,1.55,1.03,2.39,2.05,2.14,1.08-.27,1.44-1.53,1.12-2.24-.48-1.06-1.34-1.99-.58-2.82.67-.73,1.81-.4,2.89.82,1.08,1.22,2.58.99,3.09-.17.54-1.24-.6-2.23-1.77-2.19-1.18.05-1.97.09-2.52-.78-.7-1.11.44-2.19,2.35-1.64,1.6.46,3.22-.18,3.17-1.58-.05-1.25-1.31-2.41-3.33-1.11-1.97,1.27-3.77,1.12-4.29-.41-.42-1.22.52-1.62,1.31-2.42,2.01-2.05-1.93-4.46-3.02-1.39-.77,2.15-1.76,4.74-4.02,3.7l-1.43-.81s3.4-3.56,6.13-5.9c2.73-2.35,2.46-6.22-.12-8.64-2.36-2.21-9.94-5.37-11.06-5.86,3.69-8.68,4.19-26.63,4.49-31.8.05-.9.86-1.44,1.28-1.49,2.98-.35,7.91-1.6,9.81-3.33,4.12-3.77,3.07-9.38,5.57-11.13.84-.59,3.63-.09,5.01.97,1.38,1.07,2.92-.23,3.09-1.02.23-1.06-.48-2.23-1.7-2.17Z"/>
</svg>