<svg xmlns="http://www.w3.org/2000/svg" viewBox="620 165 210 205">
  <path fill="#0d9488" d="M720.99,293.5c23.78,1.34,32.57-11.76,35.6-9.51,1.09.92,2.88,2.33,3.87,3.3.81.78.59,1.59-.51,2.01-2.16.81-6.83,2.68-7.74,4.32-1.86,3.37,3.84,9.07,3.84,9.07,1.57,1.73,1.23,4.91.08,6.03-1.14,1.12-.46,2.58.53,2.93,1.06.37,2.06-.48,2.19-1.26.19-1.15-.02-2.42,1.07-2.7.97-.24,1.74.66,1.98,2.29.24,1.63,1.62,2.27,2.69,1.57,1.14-.74.74-2.21-.28-2.82-1.02-.62-1.71-1.01-1.69-2.05.02-1.32,1.59-1.59,2.89-.08,1.09,1.28,2.81,1.63,3.54.43.65-1.08.24-2.75-2.18-2.77-2.37-.02-3.79-1.14-3.38-2.73.33-1.25,1.34-1.08,2.44-1.32,2.83-.61.85-4.82-1.77-2.85-1.84,1.39-4.11,3.01-5.43.88l-.76-1.47s4.83-1.11,8.43-1.57c3.6-.46,5.52-3.87,4.69-7.33-.76-3.17-5.38-10.03-6.05-11.07,7.92-5.26,13.67-22.99,13.98-28.2.05-.9.87-1.45,1.29-1.5,3-.35,7.97-1.61,9.88-3.36,4.15-3.8,3.1-9.45,5.61-11.21.84-.59,3.65-.1,5.05.98,1.39,1.08,2.94-.23,3.11-1.03.23-1.07-.48-2.25-1.71-2.18-1.29.07-2.63.39-3.1-.76-.42-1.01.45-2,2.19-2.51,1.74-.51,2.22-2.11,1.3-3.17-.98-1.13-2.52-.46-3.03.74-.51,1.2-.84,2.01-1.98,2.15-1.45.18-1.98-1.48-.53-3.13,1.22-1.39,1.35-3.32-.08-3.92-1.28-.54-3.03.16-2.68,2.81.33,2.58-.67,4.3-2.45,4.1-1.41-.16-1.38-1.3-1.81-2.46-1.1-2.98-5.38-.19-2.83,2.37,1.79,1.79,4.49,2.57,4.15,4.31-.33,1.74-1.97,7.4-6.95,8.24-7.86,1.34-7.04-4.73-6.55-7.86.64-4.14,3.25-9.09,2.52-15.83-.44-4.07-5.18-11.27-9.24-14.16-1.56-1.11-2.87-1.37-4.64-1.11-1.71.26-3.07.93-4.2,2.47-3.05,4.2-5.12,13.14-3.9,17.1,1.3,4.23,4.11,9.81,2.45,14.12-1,2.6-2.71,3.45-5.05,3.86-10.2,1.77-5.49-8.63-5.57-7.81.18-1.77,3.07-1.87,5.29-3.07,3.17-1.71-.13-5.62-2.04-3.07-.74.99-1.03,2.09-2.43,1.84-1.77-.32-2.24-2.25-1.18-4.63,1.08-2.43-.39-3.61-1.77-3.45-1.54.17-1.97,2.05-1.19,3.73.92,1.99-.07,3.43-1.4,2.85-1.05-.46-1.13-1.33-1.28-2.63-.15-1.3-1.43-2.37-2.69-1.57-1.18.75-1.18,2.43.34,3.41,1.52.98,2.07,2.18,1.38,3.03-.78.97-1.96.22-3.19-.16-1.24-.38-2.18.52-2.26,1.61-.06.81,1.05,2.51,2.69,1.88,1.64-.63,4.39-.18,5.03.63,1.91,2.4-3.88,9.45,2.58,11.63,3.19,1.08,6.75,2.67,6.23,4.62,0,0,3.7,7.22-5.11,12.79-.26-.98-.86-3.33-1.17-3.99-1.53-3.22-5.16-4.67-8.25-2.77-3.09,1.9-7.55,4.07-7.55,4.07l-.33-1.62c-.31-2.49,3.25-3.62,5.55-3.7,3.28-.11,2.18-4.63-.41-3.33-1.01.51-1.69,1.28-2.73.51-1.31-.98-.91-2.74.92-4.25,1.87-1.54,1.15-3.1-.04-3.53-1.32-.49-2.43.87-2.48,2.55-.06,1.99-1.45,2.76-2.3,1.75-.67-.8-.38-1.54.02-2.66.41-1.12-.2-2.51-1.55-2.37-1.27.13-1.95,1.5-1.11,2.91.84,1.41.8,2.61-.1,3.02-1.03.47-1.66-.64-2.53-1.43-.83-.74-1.98-.46-2.49.39-.38.64-.17,2.47,1.43,2.62,1.59.15,3.23,2.8,3.1,4.91,0,0-.08,8.79,3.48,10.24,1.74.71,5.61-.74,7.8-1.46,1.12-.37,1.8.13,1.66,1.24-.2,1.58-.66,3.93-.88,5.22-.02.13.02-.13,0,0-3.5,9.99-14.74,12.98-23.82,11.3-10.46-1.93-33.02-24.21-21.19-50.08,1.93-3.3,1.38-6.88-2.48-1.38-3.85,5.5-12.66,23.11-4.4,42.92,8.25,19.81,24.22,22.59,33.57,23.11Z"/>
</svg>